<svg width="24" height="24" viewBox="0 0 24 24" fill="none" xmlns="http://www.w3.org/2000/svg">
<path fill-rule="evenodd" clip-rule="evenodd" d="M14.2652 8.5521C14.7547 8.2043 15.352 8 16 8C17.6569 8 19 9.34315 19 11C19 12.6569 17.6569 14 16 14C15.1639 14 14.4093 13.6593 13.8641 13.1067L12.9585 14H11V16H16H17C19.2091 16 21 17.7909 21 20H23C23 17.5857 21.5741 15.5045 19.5184 14.5525C20.4333 13.6464 21 12.3894 21 11C21 8.23858 18.7614 6 16 6C14.9235 6 13.9237 6.34137 13.1069 6.92165L14.2652 8.5521Z" fill="white"/>
<circle cx="9" cy="10" r="5" stroke="white" stroke-width="2"/>
<path d="M16 20V20C16 17.2386 13.7614 15 11 15H7C4.23858 15 2 17.2386 2 20V20" stroke="white" stroke-width="2"/>
</svg>
