<svg width="21" height="21" viewBox="0 0 21 21" fill="none" xmlns="http://www.w3.org/2000/svg">
<path fill-rule="evenodd" clip-rule="evenodd" d="M0 2.30478L12 0V20.0952L0 18V2.30478ZM14 8V6H16V5H14V2H19C20.1046 2 21 2.89543 21 4V16C21 17.1046 20.1046 18 19 18H14V15H16V14H14V12H16V11H14V9H16V8H14ZM17 9V8H19V9H17ZM17 12V11H19V12H17ZM17 15V14H19V15H17ZM17 5V6H19V5H17ZM4.4472 5.77638C4.32371 5.52939 4.02337 5.42928 3.77638 5.55277C3.52939 5.67627 3.42928 5.9766 3.55277 6.22359L5.44097 9.99999L3.55277 13.7764C3.42928 14.0234 3.52939 14.3237 3.77638 14.4472C4.02337 14.5707 4.32371 14.4706 4.4472 14.2236L5.99999 11.118L7.55277 14.2236C7.67627 14.4706 7.97661 14.5707 8.22359 14.4472C8.47058 14.3237 8.5707 14.0234 8.4472 13.7764L6.559 9.99999L8.4472 6.22359C8.5707 5.9766 8.47058 5.67627 8.22359 5.55277C7.97661 5.42928 7.67627 5.52939 7.55277 5.77638L5.99999 8.88195L4.4472 5.77638Z" fill="#00A046"/>
</svg>
